<svg id="visual" viewBox="0 0 900 600" width="900" height="600" xmlns="http://www.w3.org/2000/svg" xmlns:xlink="http://www.w3.org/1999/xlink" version="1.1"><path d="M0 175L25 184C50 193 100 211 150 209C200 207 250 185 300 186C350 187 400 211 450 207C500 203 550 171 600 164C650 157 700 175 750 180C800 185 850 177 875 173L900 169L900 0L875 0C850 0 800 0 750 0C700 0 650 0 600 0C550 0 500 0 450 0C400 0 350 0 300 0C250 0 200 0 150 0C100 0 50 0 25 0L0 0Z" fill="#d1d3d4"></path><path d="M0 337L25 351C50 365 100 393 150 396C200 399 250 377 300 371C350 365 400 375 450 382C500 389 550 393 600 401C650 409 700 421 750 421C800 421 850 409 875 403L900 397L900 167L875 171C850 175 800 183 750 178C700 173 650 155 600 162C550 169 500 201 450 205C400 209 350 185 300 184C250 183 200 205 150 207C100 209 50 191 25 182L0 173Z" fill="#dcddde"></path><path d="M0 487L25 495C50 503 100 519 150 518C200 517 250 499 300 497C350 495 400 509 450 514C500 519 550 515 600 516C650 517 700 523 750 527C800 531 850 533 875 534L900 535L900 395L875 401C850 407 800 419 750 419C700 419 650 407 600 399C550 391 500 387 450 380C400 373 350 363 300 369C250 375 200 397 150 394C100 391 50 363 25 349L0 335Z" fill="#e4e5e6"></path><path d="M0 601L25 601C50 601 100 601 150 601C200 601 250 601 300 601C350 601 400 601 450 601C500 601 550 601 600 601C650 601 700 601 750 601C800 601 850 601 875 601L900 601L900 533L875 532C850 531 800 529 750 525C700 521 650 515 600 514C550 513 500 517 450 512C400 507 350 493 300 495C250 497 200 515 150 516C100 517 50 501 25 493L0 485Z" fill="#ebecec"></path></svg>