<svg id="visual" viewBox="0 0 960 540" width="960" height="540" xmlns="http://www.w3.org/2000/svg" xmlns:xlink="http://www.w3.org/1999/xlink" version="1.1"><rect x="0" y="0" width="960" height="540" fill="#d7d7d7"></rect><path d="M0 67L40 79.8C80 92.7 160 118.3 240 124.3C320 130.3 400 116.7 480 110.7C560 104.7 640 106.3 720 101.5C800 96.7 880 85.3 920 79.7L960 74L960 541L920 541C880 541 800 541 720 541C640 541 560 541 480 541C400 541 320 541 240 541C160 541 80 541 40 541L0 541Z" fill="#b3d8b3"></path><path d="M0 220L40 215.3C80 210.7 160 201.3 240 202C320 202.7 400 213.3 480 217.2C560 221 640 218 720 211.5C800 205 880 195 920 190L960 185L960 541L920 541C880 541 800 541 720 541C640 541 560 541 480 541C400 541 320 541 240 541C160 541 80 541 40 541L0 541Z" fill="#a8e2a8"></path><path d="M0 326L40 323.3C80 320.7 160 315.3 240 302C320 288.7 400 267.3 480 260C560 252.7 640 259.3 720 263.2C800 267 880 268 920 268.5L960 269L960 541L920 541C880 541 800 541 720 541C640 541 560 541 480 541C400 541 320 541 240 541C160 541 80 541 40 541L0 541Z" fill="#9dec9d"></path><path d="M0 340L40 350.7C80 361.3 160 382.7 240 379C320 375.3 400 346.7 480 334.2C560 321.7 640 325.3 720 336.8C800 348.3 880 367.7 920 377.3L960 387L960 541L920 541C880 541 800 541 720 541C640 541 560 541 480 541C400 541 320 541 240 541C160 541 80 541 40 541L0 541Z" fill="#90f690"></path><path d="M0 419L40 425C80 431 160 443 240 443.8C320 444.7 400 434.3 480 430.2C560 426 640 428 720 431.8C800 435.7 880 441.3 920 444.2L960 447L960 541L920 541C880 541 800 541 720 541C640 541 560 541 480 541C400 541 320 541 240 541C160 541 80 541 40 541L0 541Z" fill="#82ff82"></path></svg>