<svg id="visual" viewBox="0 0 900 600" width="900" height="600" xmlns="http://www.w3.org/2000/svg" xmlns:xlink="http://www.w3.org/1999/xlink" version="1.1"><path d="M0 145L30 162C60 179 120 213 180 212C240 211 300 175 360 155C420 135 480 131 540 134C600 137 660 147 720 165C780 183 840 209 870 222L900 235L900 0L870 0C840 0 780 0 720 0C660 0 600 0 540 0C480 0 420 0 360 0C300 0 240 0 180 0C120 0 60 0 30 0L0 0Z" fill="#a9a9a9"></path><path d="M0 241L30 264C60 287 120 333 180 346C240 359 300 339 360 320C420 301 480 283 540 271C600 259 660 253 720 276C780 299 840 351 870 377L900 403L900 233L870 220C840 207 780 181 720 163C660 145 600 135 540 132C480 129 420 133 360 153C300 173 240 209 180 210C120 211 60 177 30 160L0 143Z" fill="#c0c0c0"></path><path d="M0 541L30 534C60 527 120 513 180 512C240 511 300 523 360 526C420 529 480 523 540 513C600 503 660 489 720 487C780 485 840 495 870 500L900 505L900 401L870 375C840 349 780 297 720 274C660 251 600 257 540 269C480 281 420 299 360 318C300 337 240 357 180 344C120 331 60 285 30 262L0 239Z" fill="#d1d1d1"></path><path d="M0 601L30 601C60 601 120 601 180 601C240 601 300 601 360 601C420 601 480 601 540 601C600 601 660 601 720 601C780 601 840 601 870 601L900 601L900 503L870 498C840 493 780 483 720 485C660 487 600 501 540 511C480 521 420 527 360 524C300 521 240 509 180 510C120 511 60 525 30 532L0 539Z" fill="#dcdcdc"></path></svg>
