<svg id="visual" viewBox="0 0 960 540" width="960" height="540" xmlns="http://www.w3.org/2000/svg" xmlns:xlink="http://www.w3.org/1999/xlink" version="1.1"><g stroke-width="1" stroke-linejoin="bevel"><path d="M456.1 268L507.9 281L512.9 208.5Z" fill="#80917f" stroke="#80917f"></path><path d="M512.9 208.5L440.1 181.5L456.1 268Z" fill="#788377" stroke="#788377"></path><path d="M507.9 281L588.8 262L512.9 208.5Z" fill="#bbfabb" stroke="#bbfabb"></path><path d="M588.8 262L589.8 215.5L512.9 208.5Z" fill="#aadbaa" stroke="#aadbaa"></path><path d="M512.9 208.5L464.1 131L440.1 181.5Z" fill="#899f88" stroke="#899f88"></path><path d="M349.2 294L446.1 340.5L456.1 268Z" fill="#6f756f" stroke="#6f756f"></path><path d="M456.1 268L446.1 340.5L507.9 281Z" fill="#aadbaa" stroke="#aadbaa"></path><path d="M507.9 281L595.8 324.5L588.8 262Z" fill="#99bd98" stroke="#99bd98"></path><path d="M589.8 215.5L535.9 147L512.9 208.5Z" fill="#788377" stroke="#788377"></path><path d="M535.9 147L464.1 131L512.9 208.5Z" fill="#99bd98" stroke="#99bd98"></path><path d="M446.1 340.5L537.9 361.5L507.9 281Z" fill="#899f88" stroke="#899f88"></path><path d="M537.9 361.5L595.8 324.5L507.9 281Z" fill="#b3eab2" stroke="#b3eab2"></path><path d="M588.8 262L671.6 218.5L589.8 215.5Z" fill="#899f88" stroke="#899f88"></path><path d="M376.2 141L357.2 190.5L440.1 181.5Z" fill="#99bd98" stroke="#99bd98"></path><path d="M440.1 181.5L357.2 190.5L456.1 268Z" fill="#b3eab2" stroke="#b3eab2"></path><path d="M347.2 333.5L437.1 383L446.1 340.5Z" fill="#aadbaa" stroke="#aadbaa"></path><path d="M446.1 340.5L437.1 383L537.9 361.5Z" fill="#99bd98" stroke="#99bd98"></path><path d="M357.2 190.5L349.2 294L456.1 268Z" fill="#bbfabb" stroke="#bbfabb"></path><path d="M464.1 131L376.2 141L440.1 181.5Z" fill="#676767" stroke="#676767"></path><path d="M437.1 383L537.9 391L537.9 361.5Z" fill="#99bd98" stroke="#99bd98"></path><path d="M537.9 361.5L574.8 387L595.8 324.5Z" fill="#b3eab2" stroke="#b3eab2"></path><path d="M675.6 148L590.8 114L589.8 215.5Z" fill="#6f756f" stroke="#6f756f"></path><path d="M589.8 215.5L590.8 114L535.9 147Z" fill="#676767" stroke="#676767"></path><path d="M536.9 59.5L447.1 77.5L464.1 131Z" fill="#b3eab2" stroke="#b3eab2"></path><path d="M464.1 131L447.1 77.5L376.2 141Z" fill="#99bd98" stroke="#99bd98"></path><path d="M537.9 391L574.8 387L537.9 361.5Z" fill="#80917f" stroke="#80917f"></path><path d="M349.2 294L347.2 333.5L446.1 340.5Z" fill="#91ae90" stroke="#91ae90"></path><path d="M536.9 59.5L464.1 131L535.9 147Z" fill="#6f756f" stroke="#6f756f"></path><path d="M685.6 356.5L656.6 290L595.8 324.5Z" fill="#b3eab2" stroke="#b3eab2"></path><path d="M595.8 324.5L656.6 290L588.8 262Z" fill="#bbfabb" stroke="#bbfabb"></path><path d="M656.6 290L671.6 218.5L588.8 262Z" fill="#99bd98" stroke="#99bd98"></path><path d="M590.8 114L536.9 59.5L535.9 147Z" fill="#bbfabb" stroke="#bbfabb"></path><path d="M675.6 148L604.8 91.5L590.8 114Z" fill="#788377" stroke="#788377"></path><path d="M590.8 114L604.8 91.5L536.9 59.5Z" fill="#676767" stroke="#676767"></path><path d="M347.2 333.5L356.2 390L437.1 383Z" fill="#899f88" stroke="#899f88"></path><path d="M437.1 383L528.9 479.5L537.9 391Z" fill="#788377" stroke="#788377"></path><path d="M376.2 141L298.4 184.5L357.2 190.5Z" fill="#676767" stroke="#676767"></path><path d="M357.2 190.5L284.4 285L349.2 294Z" fill="#676767" stroke="#676767"></path><path d="M349.2 294L299.4 319.5L347.2 333.5Z" fill="#aadbaa" stroke="#aadbaa"></path><path d="M347.2 333.5L302.4 387L356.2 390Z" fill="#788377" stroke="#788377"></path><path d="M270.4 137L298.4 184.5L376.2 141Z" fill="#a2cca1" stroke="#a2cca1"></path><path d="M284.4 285L299.4 319.5L349.2 294Z" fill="#bbfabb" stroke="#bbfabb"></path><path d="M671.6 218.5L675.6 148L589.8 215.5Z" fill="#80917f" stroke="#80917f"></path><path d="M298.4 184.5L284.4 285L357.2 190.5Z" fill="#bbfabb" stroke="#bbfabb"></path><path d="M394.2 0L348.2 75.5L447.1 77.5Z" fill="#b3eab2" stroke="#b3eab2"></path><path d="M447.1 77.5L348.2 75.5L376.2 141Z" fill="#a2cca1" stroke="#a2cca1"></path><path d="M574.8 387L685.6 356.5L595.8 324.5Z" fill="#80917f" stroke="#80917f"></path><path d="M744.5 281L720.5 210.5L671.6 218.5Z" fill="#b3eab2" stroke="#b3eab2"></path><path d="M671.6 218.5L714.5 160L675.6 148Z" fill="#aadbaa" stroke="#aadbaa"></path><path d="M744.5 281L671.6 218.5L656.6 290Z" fill="#aadbaa" stroke="#aadbaa"></path><path d="M233.5 343.5L302.4 387L299.4 319.5Z" fill="#bbfabb" stroke="#bbfabb"></path><path d="M299.4 319.5L302.4 387L347.2 333.5Z" fill="#899f88" stroke="#899f88"></path><path d="M348.2 75.5L311.4 84.5L376.2 141Z" fill="#6f756f" stroke="#6f756f"></path><path d="M298.4 184.5L245.5 262L284.4 285Z" fill="#899f88" stroke="#899f88"></path><path d="M448.1 492.5L528.9 479.5L437.1 383Z" fill="#676767" stroke="#676767"></path><path d="M537.9 391L582.8 469.5L574.8 387Z" fill="#676767" stroke="#676767"></path><path d="M574.8 387L679.6 419L685.6 356.5Z" fill="#676767" stroke="#676767"></path><path d="M448.1 492.5L437.1 383L374.2 471.5Z" fill="#a2cca1" stroke="#a2cca1"></path><path d="M720.5 210.5L714.5 160L671.6 218.5Z" fill="#676767" stroke="#676767"></path><path d="M676.6 49.5L598.8 0L604.8 91.5Z" fill="#788377" stroke="#788377"></path><path d="M311.4 84.5L270.4 137L376.2 141Z" fill="#b3eab2" stroke="#b3eab2"></path><path d="M598.8 0L511.9 0L536.9 59.5Z" fill="#b3eab2" stroke="#b3eab2"></path><path d="M536.9 59.5L511.9 0L447.1 77.5Z" fill="#aadbaa" stroke="#aadbaa"></path><path d="M348.2 75.5L314.4 0L311.4 84.5Z" fill="#899f88" stroke="#899f88"></path><path d="M598.8 0L536.9 59.5L604.8 91.5Z" fill="#80917f" stroke="#80917f"></path><path d="M528.9 479.5L582.8 469.5L537.9 391Z" fill="#676767" stroke="#676767"></path><path d="M239.5 195.5L245.5 262L298.4 184.5Z" fill="#a2cca1" stroke="#a2cca1"></path><path d="M284.4 285L233.5 343.5L299.4 319.5Z" fill="#676767" stroke="#676767"></path><path d="M511.9 0L437.1 0L447.1 77.5Z" fill="#b3eab2" stroke="#b3eab2"></path><path d="M374.2 471.5L437.1 383L356.2 390Z" fill="#676767" stroke="#676767"></path><path d="M270.4 137L239.5 195.5L298.4 184.5Z" fill="#99bd98" stroke="#99bd98"></path><path d="M273.4 446.5L374.2 471.5L356.2 390Z" fill="#99bd98" stroke="#99bd98"></path><path d="M747.5 311.5L744.5 281L656.6 290Z" fill="#aadbaa" stroke="#aadbaa"></path><path d="M720.5 210.5L804.3 192.5L714.5 160Z" fill="#b3eab2" stroke="#b3eab2"></path><path d="M582.8 469.5L679.6 419L574.8 387Z" fill="#bbfabb" stroke="#bbfabb"></path><path d="M685.6 356.5L747.5 311.5L656.6 290Z" fill="#aadbaa" stroke="#aadbaa"></path><path d="M437.1 0L394.2 0L447.1 77.5Z" fill="#676767" stroke="#676767"></path><path d="M724.5 399L747.5 311.5L685.6 356.5Z" fill="#91ae90" stroke="#91ae90"></path><path d="M676.6 49.5L604.8 91.5L675.6 148Z" fill="#6f756f" stroke="#6f756f"></path><path d="M714.5 160L676.6 49.5L675.6 148Z" fill="#6f756f" stroke="#6f756f"></path><path d="M158.7 314.5L233.5 343.5L245.5 262Z" fill="#b3eab2" stroke="#b3eab2"></path><path d="M245.5 262L233.5 343.5L284.4 285Z" fill="#788377" stroke="#788377"></path><path d="M302.4 387L273.4 446.5L356.2 390Z" fill="#6f756f" stroke="#6f756f"></path><path d="M756.5 468.5L724.5 399L679.6 419Z" fill="#b3eab2" stroke="#b3eab2"></path><path d="M679.6 419L724.5 399L685.6 356.5Z" fill="#aadbaa" stroke="#aadbaa"></path><path d="M676.6 49.5L655.6 0L598.8 0Z" fill="#b3eab2" stroke="#b3eab2"></path><path d="M216.5 429L273.4 446.5L302.4 387Z" fill="#99bd98" stroke="#99bd98"></path><path d="M433.1 540L524.9 540L448.1 492.5Z" fill="#6f756f" stroke="#6f756f"></path><path d="M528.9 479.5L524.9 540L582.8 469.5Z" fill="#99bd98" stroke="#99bd98"></path><path d="M582.8 469.5L672.6 497.5L679.6 419Z" fill="#676767" stroke="#676767"></path><path d="M448.1 492.5L524.9 540L528.9 479.5Z" fill="#80917f" stroke="#80917f"></path><path d="M433.1 540L448.1 492.5L383.2 540Z" fill="#99bd98" stroke="#99bd98"></path><path d="M394.2 0L314.4 0L348.2 75.5Z" fill="#b3eab2" stroke="#b3eab2"></path><path d="M201.5 47.5L197.5 127L270.4 137Z" fill="#a2cca1" stroke="#a2cca1"></path><path d="M270.4 137L197.5 127L239.5 195.5Z" fill="#b3eab2" stroke="#b3eab2"></path><path d="M383.2 540L448.1 492.5L374.2 471.5Z" fill="#aadbaa" stroke="#aadbaa"></path><path d="M638.6 540L672.6 497.5L582.8 469.5Z" fill="#99bd98" stroke="#99bd98"></path><path d="M201.5 47.5L270.4 137L311.4 84.5Z" fill="#b3eab2" stroke="#b3eab2"></path><path d="M138.7 286L158.7 314.5L245.5 262Z" fill="#bbfabb" stroke="#bbfabb"></path><path d="M318.4 540L383.2 540L374.2 471.5Z" fill="#788377" stroke="#788377"></path><path d="M524.9 540L605.8 540L582.8 469.5Z" fill="#788377" stroke="#788377"></path><path d="M744.5 281L804.3 192.5L720.5 210.5Z" fill="#91ae90" stroke="#91ae90"></path><path d="M714.5 160L751.5 52.5L676.6 49.5Z" fill="#899f88" stroke="#899f88"></path><path d="M676.6 49.5L733.5 0L655.6 0Z" fill="#80917f" stroke="#80917f"></path><path d="M837.3 274L804.3 192.5L744.5 281Z" fill="#aadbaa" stroke="#aadbaa"></path><path d="M837.3 274L744.5 281L747.5 311.5Z" fill="#788377" stroke="#788377"></path><path d="M817.3 394L792.3 355.5L724.5 399Z" fill="#6f756f" stroke="#6f756f"></path><path d="M724.5 399L792.3 355.5L747.5 311.5Z" fill="#aadbaa" stroke="#aadbaa"></path><path d="M804.3 115L751.5 52.5L714.5 160Z" fill="#676767" stroke="#676767"></path><path d="M233.5 343.5L216.5 429L302.4 387Z" fill="#788377" stroke="#788377"></path><path d="M273.4 446.5L318.4 540L374.2 471.5Z" fill="#aadbaa" stroke="#aadbaa"></path><path d="M158.7 314.5L216.5 429L233.5 343.5Z" fill="#788377" stroke="#788377"></path><path d="M605.8 540L638.6 540L582.8 469.5Z" fill="#a2cca1" stroke="#a2cca1"></path><path d="M672.6 497.5L756.5 468.5L679.6 419Z" fill="#6f756f" stroke="#6f756f"></path><path d="M138.7 286L245.5 262L135.7 188.5Z" fill="#899f88" stroke="#899f88"></path><path d="M804.3 192.5L804.3 115L714.5 160Z" fill="#a2cca1" stroke="#a2cca1"></path><path d="M198.5 540L318.4 540L273.4 446.5Z" fill="#99bd98" stroke="#99bd98"></path><path d="M817.3 0L733.5 0L751.5 52.5Z" fill="#a2cca1" stroke="#a2cca1"></path><path d="M751.5 52.5L733.5 0L676.6 49.5Z" fill="#a2cca1" stroke="#a2cca1"></path><path d="M129.7 430L209.5 446.5L216.5 429Z" fill="#91ae90" stroke="#91ae90"></path><path d="M216.5 429L209.5 446.5L273.4 446.5Z" fill="#a2cca1" stroke="#a2cca1"></path><path d="M234.5 0L201.5 47.5L311.4 84.5Z" fill="#6f756f" stroke="#6f756f"></path><path d="M135.7 188.5L245.5 262L239.5 195.5Z" fill="#aadbaa" stroke="#aadbaa"></path><path d="M792.3 355.5L837.3 274L747.5 311.5Z" fill="#99bd98" stroke="#99bd98"></path><path d="M804.3 192.5L868.2 208.5L804.3 115Z" fill="#bbfabb" stroke="#bbfabb"></path><path d="M734.5 540L756.5 468.5L672.6 497.5Z" fill="#b3eab2" stroke="#b3eab2"></path><path d="M792.3 355.5L888.2 360.5L837.3 274Z" fill="#899f88" stroke="#899f88"></path><path d="M804.3 115L799.3 75.5L751.5 52.5Z" fill="#788377" stroke="#788377"></path><path d="M817.3 0L799.3 75.5L889.2 42.5Z" fill="#99bd98" stroke="#99bd98"></path><path d="M314.4 0L234.5 0L311.4 84.5Z" fill="#899f88" stroke="#899f88"></path><path d="M135.7 188.5L239.5 195.5L197.5 127Z" fill="#91ae90" stroke="#91ae90"></path><path d="M158.7 314.5L129.7 430L216.5 429Z" fill="#6f756f" stroke="#6f756f"></path><path d="M143.7 117L135.7 188.5L197.5 127Z" fill="#676767" stroke="#676767"></path><path d="M756.5 468.5L817.3 394L724.5 399Z" fill="#bbfabb" stroke="#bbfabb"></path><path d="M145.7 73.5L143.7 117L197.5 127Z" fill="#676767" stroke="#676767"></path><path d="M145.7 73.5L197.5 127L201.5 47.5Z" fill="#676767" stroke="#676767"></path><path d="M882.2 268L868.2 208.5L837.3 274Z" fill="#91ae90" stroke="#91ae90"></path><path d="M837.3 274L868.2 208.5L804.3 192.5Z" fill="#a2cca1" stroke="#a2cca1"></path><path d="M127.7 0L145.7 73.5L201.5 47.5Z" fill="#aadbaa" stroke="#aadbaa"></path><path d="M64.8 201.5L83.8 265L135.7 188.5Z" fill="#99bd98" stroke="#99bd98"></path><path d="M638.6 540L734.5 540L672.6 497.5Z" fill="#99bd98" stroke="#99bd98"></path><path d="M756.5 468.5L809.3 464.5L817.3 394Z" fill="#b3eab2" stroke="#b3eab2"></path><path d="M798.3 540L809.3 464.5L756.5 468.5Z" fill="#b3eab2" stroke="#b3eab2"></path><path d="M888.2 360.5L882.2 268L837.3 274Z" fill="#788377" stroke="#788377"></path><path d="M888.2 360.5L792.3 355.5L817.3 394Z" fill="#a2cca1" stroke="#a2cca1"></path><path d="M94.8 346.5L129.7 430L158.7 314.5Z" fill="#91ae90" stroke="#91ae90"></path><path d="M209.5 446.5L198.5 540L273.4 446.5Z" fill="#aadbaa" stroke="#aadbaa"></path><path d="M94.8 346.5L158.7 314.5L138.7 286Z" fill="#b3eab2" stroke="#b3eab2"></path><path d="M86.8 129L135.7 188.5L143.7 117Z" fill="#788377" stroke="#788377"></path><path d="M135.7 188.5L83.8 265L138.7 286Z" fill="#bbfabb" stroke="#bbfabb"></path><path d="M889.2 42.5L799.3 75.5L804.3 115Z" fill="#a2cca1" stroke="#a2cca1"></path><path d="M799.3 75.5L817.3 0L751.5 52.5Z" fill="#899f88" stroke="#899f88"></path><path d="M83.8 265L94.8 346.5L138.7 286Z" fill="#aadbaa" stroke="#aadbaa"></path><path d="M69.8 470.5L140.7 460.5L129.7 430Z" fill="#99bd98" stroke="#99bd98"></path><path d="M129.7 430L140.7 460.5L209.5 446.5Z" fill="#80917f" stroke="#80917f"></path><path d="M873.2 408L888.2 360.5L817.3 394Z" fill="#80917f" stroke="#80917f"></path><path d="M140.7 460.5L198.5 540L209.5 446.5Z" fill="#b3eab2" stroke="#b3eab2"></path><path d="M809.3 464.5L873.2 408L817.3 394Z" fill="#899f88" stroke="#899f88"></path><path d="M876.2 476.5L873.2 408L809.3 464.5Z" fill="#aadbaa" stroke="#aadbaa"></path><path d="M91.8 60.5L86.8 129L143.7 117Z" fill="#6f756f" stroke="#6f756f"></path><path d="M960 220.5L907.2 156L868.2 208.5Z" fill="#bbfabb" stroke="#bbfabb"></path><path d="M868.2 208.5L907.2 156L804.3 115Z" fill="#91ae90" stroke="#91ae90"></path><path d="M960 220.5L868.2 208.5L882.2 268Z" fill="#b3eab2" stroke="#b3eab2"></path><path d="M86.8 129L64.8 201.5L135.7 188.5Z" fill="#80917f" stroke="#80917f"></path><path d="M0 344.5L77.8 381L94.8 346.5Z" fill="#bbfabb" stroke="#bbfabb"></path><path d="M734.5 540L798.3 540L756.5 468.5Z" fill="#aadbaa" stroke="#aadbaa"></path><path d="M0 344.5L94.8 346.5L83.8 265Z" fill="#aadbaa" stroke="#aadbaa"></path><path d="M94.8 346.5L77.8 381L129.7 430Z" fill="#91ae90" stroke="#91ae90"></path><path d="M140.7 460.5L144.7 540L198.5 540Z" fill="#899f88" stroke="#899f88"></path><path d="M234.5 0L127.7 0L201.5 47.5Z" fill="#899f88" stroke="#899f88"></path><path d="M145.7 73.5L91.8 60.5L143.7 117Z" fill="#676767" stroke="#676767"></path><path d="M0 226.5L0 247L64.8 201.5Z" fill="#676767" stroke="#676767"></path><path d="M127.7 0L91.8 60.5L145.7 73.5Z" fill="#788377" stroke="#788377"></path><path d="M907.2 156L889.2 42.5L804.3 115Z" fill="#a2cca1" stroke="#a2cca1"></path><path d="M873.2 540L876.2 476.5L809.3 464.5Z" fill="#6f756f" stroke="#6f756f"></path><path d="M960 347.5L960 290L888.2 360.5Z" fill="#99bd98" stroke="#99bd98"></path><path d="M69.8 470.5L144.7 540L140.7 460.5Z" fill="#aadbaa" stroke="#aadbaa"></path><path d="M889.2 42.5L875.2 0L817.3 0Z" fill="#99bd98" stroke="#99bd98"></path><path d="M960 290L960 220.5L882.2 268Z" fill="#80917f" stroke="#80917f"></path><path d="M907.2 156L960 85.5L889.2 42.5Z" fill="#91ae90" stroke="#91ae90"></path><path d="M889.2 42.5L960 0L875.2 0Z" fill="#676767" stroke="#676767"></path><path d="M960 290L882.2 268L888.2 360.5Z" fill="#899f88" stroke="#899f88"></path><path d="M960 347.5L888.2 360.5L960 416Z" fill="#676767" stroke="#676767"></path><path d="M77.8 381L69.8 470.5L129.7 430Z" fill="#899f88" stroke="#899f88"></path><path d="M0 394L69.8 470.5L77.8 381Z" fill="#aadbaa" stroke="#aadbaa"></path><path d="M960 220.5L960 143L907.2 156Z" fill="#a2cca1" stroke="#a2cca1"></path><path d="M960 416L888.2 360.5L873.2 408Z" fill="#676767" stroke="#676767"></path><path d="M127.7 0L70.8 0L91.8 60.5Z" fill="#aadbaa" stroke="#aadbaa"></path><path d="M0 126L64.8 201.5L86.8 129Z" fill="#6f756f" stroke="#6f756f"></path><path d="M798.3 540L873.2 540L809.3 464.5Z" fill="#bbfabb" stroke="#bbfabb"></path><path d="M960 460.5L960 416L873.2 408Z" fill="#91ae90" stroke="#91ae90"></path><path d="M0 226.5L64.8 201.5L0 126Z" fill="#b3eab2" stroke="#b3eab2"></path><path d="M64.8 201.5L0 247L83.8 265Z" fill="#91ae90" stroke="#91ae90"></path><path d="M0 126L86.8 129L91.8 60.5Z" fill="#676767" stroke="#676767"></path><path d="M960 143L960 85.5L907.2 156Z" fill="#80917f" stroke="#80917f"></path><path d="M0 247L0 344.5L83.8 265Z" fill="#b3eab2" stroke="#b3eab2"></path><path d="M960 460.5L873.2 408L876.2 476.5Z" fill="#99bd98" stroke="#99bd98"></path><path d="M0 54.5L0 126L91.8 60.5Z" fill="#a2cca1" stroke="#a2cca1"></path><path d="M0 344.5L0 394L77.8 381Z" fill="#788377" stroke="#788377"></path><path d="M960 540L960 460.5L876.2 476.5Z" fill="#bbfabb" stroke="#bbfabb"></path><path d="M0 484.5L58.8 540L69.8 470.5Z" fill="#a2cca1" stroke="#a2cca1"></path><path d="M69.8 470.5L58.8 540L144.7 540Z" fill="#788377" stroke="#788377"></path><path d="M70.8 0L0 54.5L91.8 60.5Z" fill="#99bd98" stroke="#99bd98"></path><path d="M960 85.5L960 0L889.2 42.5Z" fill="#a2cca1" stroke="#a2cca1"></path><path d="M0 394L0 484.5L69.8 470.5Z" fill="#676767" stroke="#676767"></path><path d="M70.8 0L0 0L0 54.5Z" fill="#6f756f" stroke="#6f756f"></path><path d="M873.2 540L960 540L876.2 476.5Z" fill="#80917f" stroke="#80917f"></path><path d="M0 484.5L0 540L58.8 540Z" fill="#6f756f" stroke="#6f756f"></path></g></svg>