<svg id="visual" viewBox="0 0 960 540" width="960" height="540" xmlns="http://www.w3.org/2000/svg" xmlns:xlink="http://www.w3.org/1999/xlink" version="1.1"><rect width="960" height="540" fill="#c9c9c9"></rect><g><g transform="translate(820 358)"><path d="M0 -23.7L20.5 -11.8L20.5 11.8L0 23.7L-20.5 11.8L-20.5 -11.8Z" fill="none" stroke="#c1ffc1" stroke-width="2"></path></g><g transform="translate(822 508)"><path d="M0 -9L7.8 -4.5L7.8 4.5L0 9L-7.8 4.5L-7.8 -4.5Z" fill="none" stroke="#c1ffc1" stroke-width="2"></path></g><g transform="translate(915 345)"><path d="M0 -11L9.5 -5.5L9.5 5.5L0 11L-9.5 5.5L-9.5 -5.5Z" fill="none" stroke="#c1ffc1" stroke-width="2"></path></g><g transform="translate(161 81)"><path d="M0 -19L16.5 -9.5L16.5 9.5L0 19L-16.5 9.5L-16.5 -9.5Z" fill="none" stroke="#c1ffc1" stroke-width="2"></path></g><g transform="translate(129 277)"><path d="M0 -5L4.3 -2.5L4.3 2.5L0 5L-4.3 2.5L-4.3 -2.5Z" fill="none" stroke="#c1ffc1" stroke-width="2"></path></g><g transform="translate(162 335)"><path d="M0 -18L15.6 -9L15.6 9L0 18L-15.6 9L-15.6 -9Z" fill="none" stroke="#c1ffc1" stroke-width="2"></path></g><g transform="translate(276 470)"><path d="M0 -9L7.8 -4.5L7.8 4.5L0 9L-7.8 4.5L-7.8 -4.5Z" fill="none" stroke="#c1ffc1" stroke-width="2"></path></g><g transform="translate(414 94)"><path d="M0 -20L17.3 -10L17.3 10L0 20L-17.3 10L-17.3 -10Z" fill="none" stroke="#c1ffc1" stroke-width="2"></path></g><g transform="translate(436 172)"><path d="M0 -10L8.7 -5L8.7 5L0 10L-8.7 5L-8.7 -5Z" fill="none" stroke="#c1ffc1" stroke-width="2"></path></g><g transform="translate(821 35)"><path d="M0 -20L17.3 -10L17.3 10L0 20L-17.3 10L-17.3 -10Z" fill="none" stroke="#c1ffc1" stroke-width="2"></path></g><g transform="translate(130 478)"><path d="M0 -18L15.6 -9L15.6 9L0 18L-15.6 9L-15.6 -9Z" fill="none" stroke="#c1ffc1" stroke-width="2"></path></g><g transform="translate(657 182)"><path d="M0 -17L14.7 -8.5L14.7 8.5L0 17L-14.7 8.5L-14.7 -8.5Z" fill="none" stroke="#c1ffc1" stroke-width="2"></path></g><g transform="translate(516 344)"><path d="M0 -8L6.9 -4L6.9 4L0 8L-6.9 4L-6.9 -4Z" fill="none" stroke="#c1ffc1" stroke-width="2"></path></g><g transform="translate(51 38)"><path d="M0 -6L5.2 -3L5.2 3L0 6L-5.2 3L-5.2 -3Z" fill="none" stroke="#c1ffc1" stroke-width="2"></path></g><g transform="translate(73 303)"><path d="M0 -20L17.3 -10L17.3 10L0 20L-17.3 10L-17.3 -10Z" fill="none" stroke="#c1ffc1" stroke-width="2"></path></g><g transform="translate(664 302)"><path d="M0 -15L13 -7.5L13 7.5L0 15L-13 7.5L-13 -7.5Z" fill="none" stroke="#c1ffc1" stroke-width="2"></path></g><g transform="translate(924 229)"><path d="M0 -18L15.6 -9L15.6 9L0 18L-15.6 9L-15.6 -9Z" fill="none" stroke="#c1ffc1" stroke-width="2"></path></g><g transform="translate(587 193)"><path d="M0 -7L6.1 -3.5L6.1 3.5L0 7L-6.1 3.5L-6.1 -3.5Z" fill="none" stroke="#c1ffc1" stroke-width="2"></path></g><g transform="translate(338 152)"><path d="M0 -19L16.5 -9.5L16.5 9.5L0 19L-16.5 9.5L-16.5 -9.5Z" fill="none" stroke="#c1ffc1" stroke-width="2"></path></g><g transform="translate(107 21)"><path d="M0 -20L17.3 -10L17.3 10L0 20L-17.3 10L-17.3 -10Z" fill="none" stroke="#c1ffc1" stroke-width="2"></path></g><g transform="translate(263 23)"><path d="M0 -16L13.9 -8L13.9 8L0 16L-13.9 8L-13.9 -8Z" fill="none" stroke="#c1ffc1" stroke-width="2"></path></g><g transform="translate(706 522)"><path d="M0 -15L13 -7.5L13 7.5L0 15L-13 7.5L-13 -7.5Z" fill="none" stroke="#c1ffc1" stroke-width="2"></path></g><g transform="translate(346 272)"><path d="M0 -20L17.3 -10L17.3 10L0 20L-17.3 10L-17.3 -10Z" fill="none" stroke="#c1ffc1" stroke-width="2"></path></g><g transform="translate(348 41)"><path d="M0 -8L6.9 -4L6.9 4L0 8L-6.9 4L-6.9 -4Z" fill="none" stroke="#c1ffc1" stroke-width="2"></path></g><g transform="translate(891 144)"><path d="M0 -9L7.8 -4.5L7.8 4.5L0 9L-7.8 4.5L-7.8 -4.5Z" fill="none" stroke="#c1ffc1" stroke-width="2"></path></g><g transform="translate(815 260)"><path d="M0 -10L8.7 -5L8.7 5L0 10L-8.7 5L-8.7 -5Z" fill="none" stroke="#c1ffc1" stroke-width="2"></path></g><g transform="translate(764 284)"><path d="M0 -15L13 -7.5L13 7.5L0 15L-13 7.5L-13 -7.5Z" fill="none" stroke="#c1ffc1" stroke-width="2"></path></g><g transform="translate(290 290)"><path d="M0 -10L8.7 -5L8.7 5L0 10L-8.7 5L-8.7 -5Z" fill="none" stroke="#c1ffc1" stroke-width="2"></path></g><g transform="translate(854 398)"><path d="M0 -22L19.1 -11L19.1 11L0 22L-19.1 11L-19.1 -11Z" fill="none" stroke="#c1ffc1" stroke-width="2"></path></g><g transform="translate(667 387)"><path d="M0 -5L4.3 -2.5L4.3 2.5L0 5L-4.3 2.5L-4.3 -2.5Z" fill="none" stroke="#c1ffc1" stroke-width="2"></path></g><g transform="translate(405 490)"><path d="M0 -14L12.1 -7L12.1 7L0 14L-12.1 7L-12.1 -7Z" fill="none" stroke="#c1ffc1" stroke-width="2"></path></g><g transform="translate(575 140)"><path d="M0 -21L18.2 -10.5L18.2 10.5L0 21L-18.2 10.5L-18.2 -10.5Z" fill="none" stroke="#c1ffc1" stroke-width="2"></path></g><g transform="translate(132 191)"><path d="M0 -5L4.3 -2.5L4.3 2.5L0 5L-4.3 2.5L-4.3 -2.5Z" fill="none" stroke="#c1ffc1" stroke-width="2"></path></g><g transform="translate(49 203)"><path d="M0 -10L8.7 -5L8.7 5L0 10L-8.7 5L-8.7 -5Z" fill="none" stroke="#c1ffc1" stroke-width="2"></path></g><g transform="translate(463 70)"><path d="M0 -11L9.5 -5.5L9.5 5.5L0 11L-9.5 5.5L-9.5 -5.5Z" fill="none" stroke="#c1ffc1" stroke-width="2"></path></g><g transform="translate(582 488)"><path d="M0 -14L12.1 -7L12.1 7L0 14L-12.1 7L-12.1 -7Z" fill="none" stroke="#c1ffc1" stroke-width="2"></path></g><g transform="translate(92 373)"><path d="M0 -20L17.3 -10L17.3 10L0 20L-17.3 10L-17.3 -10Z" fill="none" stroke="#c1ffc1" stroke-width="2"></path></g><g transform="translate(711 426)"><path d="M0 -13L11.3 -6.5L11.3 6.5L0 13L-11.3 6.5L-11.3 -6.5Z" fill="none" stroke="#c1ffc1" stroke-width="2"></path></g><g transform="translate(8 129)"><path d="M0 -17L14.7 -8.5L14.7 8.5L0 17L-14.7 8.5L-14.7 -8.5Z" fill="none" stroke="#c1ffc1" stroke-width="2"></path></g><g transform="translate(729 172)"><path d="M0 -12L10.4 -6L10.4 6L0 12L-10.4 6L-10.4 -6Z" fill="none" stroke="#c1ffc1" stroke-width="2"></path></g><g transform="translate(79 241)"><path d="M0 -20L17.3 -10L17.3 10L0 20L-17.3 10L-17.3 -10Z" fill="none" stroke="#c1ffc1" stroke-width="2"></path></g><g transform="translate(544 5)"><path d="M0 -15L13 -7.5L13 7.5L0 15L-13 7.5L-13 -7.5Z" fill="none" stroke="#c1ffc1" stroke-width="2"></path></g><g transform="translate(293 396)"><path d="M0 -18L15.6 -9L15.6 9L0 18L-15.6 9L-15.6 -9Z" fill="none" stroke="#c1ffc1" stroke-width="2"></path></g><g transform="translate(603 343)"><path d="M0 -15L13 -7.5L13 7.5L0 15L-13 7.5L-13 -7.5Z" fill="none" stroke="#c1ffc1" stroke-width="2"></path></g><g transform="translate(605 246)"><path d="M0 -5L4.3 -2.5L4.3 2.5L0 5L-4.3 2.5L-4.3 -2.5Z" fill="none" stroke="#c1ffc1" stroke-width="2"></path></g><g transform="translate(829 120)"><path d="M0 -20L17.3 -10L17.3 10L0 20L-17.3 10L-17.3 -10Z" fill="none" stroke="#c1ffc1" stroke-width="2"></path></g><g transform="translate(756 394)"><path d="M0 -15L13 -7.5L13 7.5L0 15L-13 7.5L-13 -7.5Z" fill="none" stroke="#c1ffc1" stroke-width="2"></path></g><g transform="translate(202 118)"><path d="M0 -15L13 -7.5L13 7.5L0 15L-13 7.5L-13 -7.5Z" fill="none" stroke="#c1ffc1" stroke-width="2"></path></g><g transform="translate(773 98)"><path d="M0 -20L17.3 -10L17.3 10L0 20L-17.3 10L-17.3 -10Z" fill="none" stroke="#c1ffc1" stroke-width="2"></path></g><g transform="translate(507 422)"><path d="M0 -9L7.8 -4.5L7.8 4.5L0 9L-7.8 4.5L-7.8 -4.5Z" fill="none" stroke="#c1ffc1" stroke-width="2"></path></g><g transform="translate(659 90)"><path d="M0 -5L4.3 -2.5L4.3 2.5L0 5L-4.3 2.5L-4.3 -2.5Z" fill="none" stroke="#c1ffc1" stroke-width="2"></path></g><g transform="translate(533 512)"><path d="M0 -15L13 -7.5L13 7.5L0 15L-13 7.5L-13 -7.5Z" fill="none" stroke="#c1ffc1" stroke-width="2"></path></g><g transform="translate(906 53)"><path d="M0 -15L13 -7.5L13 7.5L0 15L-13 7.5L-13 -7.5Z" fill="none" stroke="#c1ffc1" stroke-width="2"></path></g><g transform="translate(190 186)"><path d="M0 -20L17.3 -10L17.3 10L0 20L-17.3 10L-17.3 -10Z" fill="none" stroke="#c1ffc1" stroke-width="2"></path></g><g transform="translate(427 34)"><path d="M0 -19L16.5 -9.5L16.5 9.5L0 19L-16.5 9.5L-16.5 -9.5Z" fill="none" stroke="#c1ffc1" stroke-width="2"></path></g><g transform="translate(955 27)"><path d="M0 -22L19.1 -11L19.1 11L0 22L-19.1 11L-19.1 -11Z" fill="none" stroke="#c1ffc1" stroke-width="2"></path></g><g transform="translate(41 512)"><path d="M0 -12L10.4 -6L10.4 6L0 12L-10.4 6L-10.4 -6Z" fill="none" stroke="#c1ffc1" stroke-width="2"></path></g><g transform="translate(643 487)"><path d="M0 -15L13 -7.5L13 7.5L0 15L-13 7.5L-13 -7.5Z" fill="none" stroke="#c1ffc1" stroke-width="2"></path></g><g transform="translate(401 246)"><path d="M0 -15L13 -7.5L13 7.5L0 15L-13 7.5L-13 -7.5Z" fill="none" stroke="#c1ffc1" stroke-width="2"></path></g><g transform="translate(512 285)"><path d="M0 -7L6.1 -3.5L6.1 3.5L0 7L-6.1 3.5L-6.1 -3.5Z" fill="none" stroke="#c1ffc1" stroke-width="2"></path></g><g transform="translate(245 359)"><path d="M0 -15L13 -7.5L13 7.5L0 15L-13 7.5L-13 -7.5Z" fill="none" stroke="#c1ffc1" stroke-width="2"></path></g><g transform="translate(178 482)"><path d="M0 -17L14.7 -8.5L14.7 8.5L0 17L-14.7 8.5L-14.7 -8.5Z" fill="none" stroke="#c1ffc1" stroke-width="2"></path></g><g transform="translate(157 530)"><path d="M0 -6L5.2 -3L5.2 3L0 6L-5.2 3L-5.2 -3Z" fill="none" stroke="#c1ffc1" stroke-width="2"></path></g><g transform="translate(912 529)"><path d="M0 -15L13 -7.5L13 7.5L0 15L-13 7.5L-13 -7.5Z" fill="none" stroke="#c1ffc1" stroke-width="2"></path></g><g transform="translate(459 351)"><path d="M0 -13L11.3 -6.5L11.3 6.5L0 13L-11.3 6.5L-11.3 -6.5Z" fill="none" stroke="#c1ffc1" stroke-width="2"></path></g><g transform="translate(354 100)"><path d="M0 -7L6.1 -3.5L6.1 3.5L0 7L-6.1 3.5L-6.1 -3.5Z" fill="none" stroke="#c1ffc1" stroke-width="2"></path></g><g transform="translate(293 84)"><path d="M0 -9L7.8 -4.5L7.8 4.5L0 9L-7.8 4.5L-7.8 -4.5Z" fill="none" stroke="#c1ffc1" stroke-width="2"></path></g><g transform="translate(592 93)"><path d="M0 -5L4.3 -2.5L4.3 2.5L0 5L-4.3 2.5L-4.3 -2.5Z" fill="none" stroke="#c1ffc1" stroke-width="2"></path></g><g transform="translate(713 359)"><path d="M0 -7L6.1 -3.5L6.1 3.5L0 7L-6.1 3.5L-6.1 -3.5Z" fill="none" stroke="#c1ffc1" stroke-width="2"></path></g><g transform="translate(560 435)"><path d="M0 -5L4.3 -2.5L4.3 2.5L0 5L-4.3 2.5L-4.3 -2.5Z" fill="none" stroke="#c1ffc1" stroke-width="2"></path></g><g transform="translate(572 385)"><path d="M0 -21L18.2 -10.5L18.2 10.5L0 21L-18.2 10.5L-18.2 -10.5Z" fill="none" stroke="#c1ffc1" stroke-width="2"></path></g><g transform="translate(820 448)"><path d="M0 -7L6.1 -3.5L6.1 3.5L0 7L-6.1 3.5L-6.1 -3.5Z" fill="none" stroke="#c1ffc1" stroke-width="2"></path></g><g transform="translate(511 82)"><path d="M0 -18L15.6 -9L15.6 9L0 18L-15.6 9L-15.6 -9Z" fill="none" stroke="#c1ffc1" stroke-width="2"></path></g><g transform="translate(883 263)"><path d="M0 -18L15.6 -9L15.6 9L0 18L-15.6 9L-15.6 -9Z" fill="none" stroke="#c1ffc1" stroke-width="2"></path></g><g transform="translate(82 103)"><path d="M0 -16L13.9 -8L13.9 8L0 16L-13.9 8L-13.9 -8Z" fill="none" stroke="#c1ffc1" stroke-width="2"></path></g><g transform="translate(935 413)"><path d="M0 -11L9.5 -5.5L9.5 5.5L0 11L-9.5 5.5L-9.5 -5.5Z" fill="none" stroke="#c1ffc1" stroke-width="2"></path></g><g transform="translate(61 417)"><path d="M0 -9L7.8 -4.5L7.8 4.5L0 9L-7.8 4.5L-7.8 -4.5Z" fill="none" stroke="#c1ffc1" stroke-width="2"></path></g><g transform="translate(259 247)"><path d="M0 -10L8.7 -5L8.7 5L0 10L-8.7 5L-8.7 -5Z" fill="none" stroke="#c1ffc1" stroke-width="2"></path></g><g transform="translate(20 388)"><path d="M0 -20L17.3 -10L17.3 10L0 20L-17.3 10L-17.3 -10Z" fill="none" stroke="#c1ffc1" stroke-width="2"></path></g><g transform="translate(256 516)"><path d="M0 -6L5.2 -3L5.2 3L0 6L-5.2 3L-5.2 -3Z" fill="none" stroke="#c1ffc1" stroke-width="2"></path></g><g transform="translate(159 241)"><path d="M0 -18L15.6 -9L15.6 9L0 18L-15.6 9L-15.6 -9Z" fill="none" stroke="#c1ffc1" stroke-width="2"></path></g><g transform="translate(383 186)"><path d="M0 -6L5.2 -3L5.2 3L0 6L-5.2 3L-5.2 -3Z" fill="none" stroke="#c1ffc1" stroke-width="2"></path></g><g transform="translate(350 326)"><path d="M0 -5L4.3 -2.5L4.3 2.5L0 5L-4.3 2.5L-4.3 -2.5Z" fill="none" stroke="#c1ffc1" stroke-width="2"></path></g><g transform="translate(638 24)"><path d="M0 -9L7.8 -4.5L7.8 4.5L0 9L-7.8 4.5L-7.8 -4.5Z" fill="none" stroke="#c1ffc1" stroke-width="2"></path></g><g transform="translate(569 282)"><path d="M0 -18L15.6 -9L15.6 9L0 18L-15.6 9L-15.6 -9Z" fill="none" stroke="#c1ffc1" stroke-width="2"></path></g><g transform="translate(356 404)"><path d="M0 -9L7.8 -4.5L7.8 4.5L0 9L-7.8 4.5L-7.8 -4.5Z" fill="none" stroke="#c1ffc1" stroke-width="2"></path></g><g transform="translate(624 533)"><path d="M0 -17L14.7 -8.5L14.7 8.5L0 17L-14.7 8.5L-14.7 -8.5Z" fill="none" stroke="#c1ffc1" stroke-width="2"></path></g><g transform="translate(573 538)"><path d="M0 -9L7.8 -4.5L7.8 4.5L0 9L-7.8 4.5L-7.8 -4.5Z" fill="none" stroke="#c1ffc1" stroke-width="2"></path></g><g transform="translate(249 189)"><path d="M0 -14L12.1 -7L12.1 7L0 14L-12.1 7L-12.1 -7Z" fill="none" stroke="#c1ffc1" stroke-width="2"></path></g><g transform="translate(427 437)"><path d="M0 -18L15.6 -9L15.6 9L0 18L-15.6 9L-15.6 -9Z" fill="none" stroke="#c1ffc1" stroke-width="2"></path></g><g transform="translate(470 511)"><path d="M0 -13L11.3 -6.5L11.3 6.5L0 13L-11.3 6.5L-11.3 -6.5Z" fill="none" stroke="#c1ffc1" stroke-width="2"></path></g><g transform="translate(139 428)"><path d="M0 -12L10.4 -6L10.4 6L0 12L-10.4 6L-10.4 -6Z" fill="none" stroke="#c1ffc1" stroke-width="2"></path></g><g transform="translate(302 205)"><path d="M0 -7L6.1 -3.5L6.1 3.5L0 7L-6.1 3.5L-6.1 -3.5Z" fill="none" stroke="#c1ffc1" stroke-width="2"></path></g><g transform="translate(634 432)"><path d="M0 -8L6.9 -4L6.9 4L0 8L-6.9 4L-6.9 -4Z" fill="none" stroke="#c1ffc1" stroke-width="2"></path></g><g transform="translate(873 461)"><path d="M0 -13L11.3 -6.5L11.3 6.5L0 13L-11.3 6.5L-11.3 -6.5Z" fill="none" stroke="#c1ffc1" stroke-width="2"></path></g><g transform="translate(796 196)"><path d="M0 -13L11.3 -6.5L11.3 6.5L0 13L-11.3 6.5L-11.3 -6.5Z" fill="none" stroke="#c1ffc1" stroke-width="2"></path></g><g transform="translate(771 346)"><path d="M0 -5L4.3 -2.5L4.3 2.5L0 5L-4.3 2.5L-4.3 -2.5Z" fill="none" stroke="#c1ffc1" stroke-width="2"></path></g><g transform="translate(473 252)"><path d="M0 -13L11.3 -6.5L11.3 6.5L0 13L-11.3 6.5L-11.3 -6.5Z" fill="none" stroke="#c1ffc1" stroke-width="2"></path></g><g transform="translate(849 178)"><path d="M0 -22L19.1 -11L19.1 11L0 22L-19.1 11L-19.1 -11Z" fill="none" stroke="#c1ffc1" stroke-width="2"></path></g><g transform="translate(234 84)"><path d="M0 -14L12.1 -7L12.1 7L0 14L-12.1 7L-12.1 -7Z" fill="none" stroke="#c1ffc1" stroke-width="2"></path></g><g transform="translate(677 227)"><path d="M0 -13L11.3 -6.5L11.3 6.5L0 13L-11.3 6.5L-11.3 -6.5Z" fill="none" stroke="#c1ffc1" stroke-width="2"></path></g><g transform="translate(198 10)"><path d="M0 -17L14.7 -8.5L14.7 8.5L0 17L-14.7 8.5L-14.7 -8.5Z" fill="none" stroke="#c1ffc1" stroke-width="2"></path></g><g transform="translate(479 195)"><path d="M0 -11L9.5 -5.5L9.5 5.5L0 11L-9.5 5.5L-9.5 -5.5Z" fill="none" stroke="#c1ffc1" stroke-width="2"></path></g><g transform="translate(311 537)"><path d="M0 -20L17.3 -10L17.3 10L0 20L-17.3 10L-17.3 -10Z" fill="none" stroke="#c1ffc1" stroke-width="2"></path></g><g transform="translate(691 51)"><path d="M0 -8L6.9 -4L6.9 4L0 8L-6.9 4L-6.9 -4Z" fill="none" stroke="#c1ffc1" stroke-width="2"></path></g><g transform="translate(330 460)"><path d="M0 -9L7.8 -4.5L7.8 4.5L0 9L-7.8 4.5L-7.8 -4.5Z" fill="none" stroke="#c1ffc1" stroke-width="2"></path></g><g transform="translate(702 121)"><path d="M0 -19L16.5 -9.5L16.5 9.5L0 19L-16.5 9.5L-16.5 -9.5Z" fill="none" stroke="#c1ffc1" stroke-width="2"></path></g><g transform="translate(92 520)"><path d="M0 -11L9.5 -5.5L9.5 5.5L0 11L-9.5 5.5L-9.5 -5.5Z" fill="none" stroke="#c1ffc1" stroke-width="2"></path></g><g transform="translate(746 24)"><path d="M0 -17L14.7 -8.5L14.7 8.5L0 17L-14.7 8.5L-14.7 -8.5Z" fill="none" stroke="#c1ffc1" stroke-width="2"></path></g><g transform="translate(209 230)"><path d="M0 -8L6.9 -4L6.9 4L0 8L-6.9 4L-6.9 -4Z" fill="none" stroke="#c1ffc1" stroke-width="2"></path></g><g transform="translate(543 233)"><path d="M0 -12L10.4 -6L10.4 6L0 12L-10.4 6L-10.4 -6Z" fill="none" stroke="#c1ffc1" stroke-width="2"></path></g><g transform="translate(407 379)"><path d="M0 -6L5.2 -3L5.2 3L0 6L-5.2 3L-5.2 -3Z" fill="none" stroke="#c1ffc1" stroke-width="2"></path></g><g transform="translate(2 251)"><path d="M0 -9L7.8 -4.5L7.8 4.5L0 9L-7.8 4.5L-7.8 -4.5Z" fill="none" stroke="#c1ffc1" stroke-width="2"></path></g><g transform="translate(852 309)"><path d="M0 -18L15.6 -9L15.6 9L0 18L-15.6 9L-15.6 -9Z" fill="none" stroke="#c1ffc1" stroke-width="2"></path></g><g transform="translate(135 128)"><path d="M0 -18L15.6 -9L15.6 9L0 18L-15.6 9L-15.6 -9Z" fill="none" stroke="#c1ffc1" stroke-width="2"></path></g><g transform="translate(951 112)"><path d="M0 -11L9.5 -5.5L9.5 5.5L0 11L-9.5 5.5L-9.5 -5.5Z" fill="none" stroke="#c1ffc1" stroke-width="2"></path></g><g transform="translate(21 318)"><path d="M0 -19L16.5 -9.5L16.5 9.5L0 19L-16.5 9.5L-16.5 -9.5Z" fill="none" stroke="#c1ffc1" stroke-width="2"></path></g><g transform="translate(287 157)"><path d="M0 -19L16.5 -9.5L16.5 9.5L0 19L-16.5 9.5L-16.5 -9.5Z" fill="none" stroke="#c1ffc1" stroke-width="2"></path></g><g transform="translate(222 403)"><path d="M0 -16L13.9 -8L13.9 8L0 16L-13.9 8L-13.9 -8Z" fill="none" stroke="#c1ffc1" stroke-width="2"></path></g><g transform="translate(888 7)"><path d="M0 -7L6.1 -3.5L6.1 3.5L0 7L-6.1 3.5L-6.1 -3.5Z" fill="none" stroke="#c1ffc1" stroke-width="2"></path></g><g transform="translate(180 291)"><path d="M0 -10L8.7 -5L8.7 5L0 10L-8.7 5L-8.7 -5Z" fill="none" stroke="#c1ffc1" stroke-width="2"></path></g><g transform="translate(20 80)"><path d="M0 -7L6.1 -3.5L6.1 3.5L0 7L-6.1 3.5L-6.1 -3.5Z" fill="none" stroke="#c1ffc1" stroke-width="2"></path></g><g transform="translate(477 132)"><path d="M0 -16L13.9 -8L13.9 8L0 16L-13.9 8L-13.9 -8Z" fill="none" stroke="#c1ffc1" stroke-width="2"></path></g><g transform="translate(15 441)"><path d="M0 -18L15.6 -9L15.6 9L0 18L-15.6 9L-15.6 -9Z" fill="none" stroke="#c1ffc1" stroke-width="2"></path></g><g transform="translate(54 143)"><path d="M0 -15L13 -7.5L13 7.5L0 15L-13 7.5L-13 -7.5Z" fill="none" stroke="#c1ffc1" stroke-width="2"></path></g><g transform="translate(312 7)"><path d="M0 -11L9.5 -5.5L9.5 5.5L0 11L-9.5 5.5L-9.5 -5.5Z" fill="none" stroke="#c1ffc1" stroke-width="2"></path></g><g transform="translate(718 299)"><path d="M0 -5L4.3 -2.5L4.3 2.5L0 5L-4.3 2.5L-4.3 -2.5Z" fill="none" stroke="#c1ffc1" stroke-width="2"></path></g><g transform="translate(529 186)"><path d="M0 -17L14.7 -8.5L14.7 8.5L0 17L-14.7 8.5L-14.7 -8.5Z" fill="none" stroke="#c1ffc1" stroke-width="2"></path></g><g transform="translate(232 291)"><path d="M0 -5L4.3 -2.5L4.3 2.5L0 5L-4.3 2.5L-4.3 -2.5Z" fill="none" stroke="#c1ffc1" stroke-width="2"></path></g><g transform="translate(478 22)"><path d="M0 -12L10.4 -6L10.4 6L0 12L-10.4 6L-10.4 -6Z" fill="none" stroke="#c1ffc1" stroke-width="2"></path></g><g transform="translate(953 477)"><path d="M0 -6L5.2 -3L5.2 3L0 6L-5.2 3L-5.2 -3Z" fill="none" stroke="#c1ffc1" stroke-width="2"></path></g><g transform="translate(779 148)"><path d="M0 -6L5.2 -3L5.2 3L0 6L-5.2 3L-5.2 -3Z" fill="none" stroke="#c1ffc1" stroke-width="2"></path></g><g transform="translate(1 17)"><path d="M0 -8L6.9 -4L6.9 4L0 8L-6.9 4L-6.9 -4Z" fill="none" stroke="#c1ffc1" stroke-width="2"></path></g><g transform="translate(951 310)"><path d="M0 -22L19.1 -11L19.1 11L0 22L-19.1 11L-19.1 -11Z" fill="none" stroke="#c1ffc1" stroke-width="2"></path></g><g transform="translate(306 349)"><path d="M0 -21L18.2 -10.5L18.2 10.5L0 21L-18.2 10.5L-18.2 -10.5Z" fill="none" stroke="#c1ffc1" stroke-width="2"></path></g><g transform="translate(361 525)"><path d="M0 -10L8.7 -5L8.7 5L0 10L-8.7 5L-8.7 -5Z" fill="none" stroke="#c1ffc1" stroke-width="2"></path></g><g transform="translate(587 38)"><path d="M0 -18L15.6 -9L15.6 9L0 18L-15.6 9L-15.6 -9Z" fill="none" stroke="#c1ffc1" stroke-width="2"></path></g><g transform="translate(774 532)"><path d="M0 -6L5.2 -3L5.2 3L0 6L-5.2 3L-5.2 -3Z" fill="none" stroke="#c1ffc1" stroke-width="2"></path></g><g transform="translate(427 300)"><path d="M0 -17L14.7 -8.5L14.7 8.5L0 17L-14.7 8.5L-14.7 -8.5Z" fill="none" stroke="#c1ffc1" stroke-width="2"></path></g><g transform="translate(758 443)"><path d="M0 -19L16.5 -9.5L16.5 9.5L0 19L-16.5 9.5L-16.5 -9.5Z" fill="none" stroke="#c1ffc1" stroke-width="2"></path></g><g transform="translate(726 232)"><path d="M0 -21L18.2 -10.5L18.2 10.5L0 21L-18.2 10.5L-18.2 -10.5Z" fill="none" stroke="#c1ffc1" stroke-width="2"></path></g><g transform="translate(947 170)"><path d="M0 -16L13.9 -8L13.9 8L0 16L-13.9 8L-13.9 -8Z" fill="none" stroke="#c1ffc1" stroke-width="2"></path></g><g transform="translate(221 452)"><path d="M0 -8L6.9 -4L6.9 4L0 8L-6.9 4L-6.9 -4Z" fill="none" stroke="#c1ffc1" stroke-width="2"></path></g><g transform="translate(715 475)"><path d="M0 -9L7.8 -4.5L7.8 4.5L0 9L-7.8 4.5L-7.8 -4.5Z" fill="none" stroke="#c1ffc1" stroke-width="2"></path></g><g transform="translate(170 391)"><path d="M0 -18L15.6 -9L15.6 9L0 18L-15.6 9L-15.6 -9Z" fill="none" stroke="#c1ffc1" stroke-width="2"></path></g><g transform="translate(681 1)"><path d="M0 -17L14.7 -8.5L14.7 8.5L0 17L-14.7 8.5L-14.7 -8.5Z" fill="none" stroke="#c1ffc1" stroke-width="2"></path></g><g transform="translate(625 140)"><path d="M0 -18L15.6 -9L15.6 9L0 18L-15.6 9L-15.6 -9Z" fill="none" stroke="#c1ffc1" stroke-width="2"></path></g><g transform="translate(873 89)"><path d="M0 -21L18.2 -10.5L18.2 10.5L0 21L-18.2 10.5L-18.2 -10.5Z" fill="none" stroke="#c1ffc1" stroke-width="2"></path></g><g transform="translate(413 537)"><path d="M0 -19L16.5 -9.5L16.5 9.5L0 19L-16.5 9.5L-16.5 -9.5Z" fill="none" stroke="#c1ffc1" stroke-width="2"></path></g><g transform="translate(485 466)"><path d="M0 -13L11.3 -6.5L11.3 6.5L0 13L-11.3 6.5L-11.3 -6.5Z" fill="none" stroke="#c1ffc1" stroke-width="2"></path></g><g transform="translate(64 470)"><path d="M0 -20L17.3 -10L17.3 10L0 20L-17.3 10L-17.3 -10Z" fill="none" stroke="#c1ffc1" stroke-width="2"></path></g><g transform="translate(804 311)"><path d="M0 -13L11.3 -6.5L11.3 6.5L0 13L-11.3 6.5L-11.3 -6.5Z" fill="none" stroke="#c1ffc1" stroke-width="2"></path></g><g transform="translate(525 134)"><path d="M0 -13L11.3 -6.5L11.3 6.5L0 13L-11.3 6.5L-11.3 -6.5Z" fill="none" stroke="#c1ffc1" stroke-width="2"></path></g><g transform="translate(115 328)"><path d="M0 -9L7.8 -4.5L7.8 4.5L0 9L-7.8 4.5L-7.8 -4.5Z" fill="none" stroke="#c1ffc1" stroke-width="2"></path></g><g transform="translate(154 31)"><path d="M0 -17L14.7 -8.5L14.7 8.5L0 17L-14.7 8.5L-14.7 -8.5Z" fill="none" stroke="#c1ffc1" stroke-width="2"></path></g><g transform="translate(3 187)"><path d="M0 -7L6.1 -3.5L6.1 3.5L0 7L-6.1 3.5L-6.1 -3.5Z" fill="none" stroke="#c1ffc1" stroke-width="2"></path></g><g transform="translate(353 224)"><path d="M0 -13L11.3 -6.5L11.3 6.5L0 13L-11.3 6.5L-11.3 -6.5Z" fill="none" stroke="#c1ffc1" stroke-width="2"></path></g><g transform="translate(455 398)"><path d="M0 -9L7.8 -4.5L7.8 4.5L0 9L-7.8 4.5L-7.8 -4.5Z" fill="none" stroke="#c1ffc1" stroke-width="2"></path></g><g transform="translate(959 367)"><path d="M0 -21L18.2 -10.5L18.2 10.5L0 21L-18.2 10.5L-18.2 -10.5Z" fill="none" stroke="#c1ffc1" stroke-width="2"></path></g><g transform="translate(376 450)"><path d="M0 -17L14.7 -8.5L14.7 8.5L0 17L-14.7 8.5L-14.7 -8.5Z" fill="none" stroke="#c1ffc1" stroke-width="2"></path></g></g></svg>